<svg xmlns="http://www.w3.org/2000/svg" xmlns:xlink="http://www.w3.org/1999/xlink" version="1.1" width="595.276pt" height="841.89pt" viewBox="0 0 595.276 841.89">
<text xml:space="preserve" transform="matrix(1 0 -0 1 0 841.89)" font-size="17.2154" font-family="SFRB1728" font-weight="bold"><tspan y="-815.836" x="17.008 27.8537 35.721139 42.021978 48.40889 56.27633 66.157978 75.16163 84.16528 92.03272 98.79838 112.29525">VatsalSharma</tspan></text>
<text xml:space="preserve" transform="matrix(1 0 -0 1 0 841.89)" font-size="10.9091" font-family="SFRM1095"><tspan y="-802.287" x="17.008 24.688006 30.109829 34.626199 40.64802 45.469846 48.480756 53.902578 61.74622 67.168048 74.09532 81.0226 85.84442 90.3717 96.39352 102.41534 107.83716 110.84807 116.26989 121.6808">BachelorofTechnology</tspan><tspan y="-788.738" x="17.008 24.840733 30.262555 39.295289 45.317113 51.338937 55.560758 60.38258 68.21531 74.23713 79.05895 82.06986 86.891689 92.913509 97.73533 106.17897 113.55352 119.57534 124.99716 127.99716 134.01898 138.8408 143.66263 147.88445 150.89536 156.91718 462.91743 471.4265 474.43745 478.65928 486.78657 492.80839">ComputerScienceEngineeringGitHub</tspan><tspan y="-775.188" x="17.008 24.688006 29.509827 35.53165 41.553476 46.375299 50.59712 58.42985 66.55713 72.57895 75.58986 81.02259 85.84441 90.06624 94.342609 97.353519 101.26988 106.091709 112.724437 121.233539 125.45536 130.26627 135.6881 139.90991 144.73174 152.57538 160.70265 166.12448 169.13539 175.15721 456.8411 463.61567 466.6266 472.6484 478.07023 482.89204 488.91386 492.83024">BennettUniversity,GreaterNoidaLinkedIn</tspan></text>
<text xml:space="preserve" transform="matrix(1 0 -0 1 0 841.89)" font-size="11.9552" font-family="SFXC1200" font-weight="bold"><tspan y="-753.579" x="17.008 25.029938 33.338804 43.596368 53.853929 61.983465 68.881618">Summary</tspan></text>
<path transform="matrix(1,0,0,-1,17.008,92.69501)" stroke-width=".398" stroke-linecap="butt" stroke-miterlimit="10" stroke-linejoin="miter" fill="none" stroke="#000000" d="M0 0H561.26"/>
<text xml:space="preserve" transform="matrix(1 0 -0 1 0 841.89)" font-size="10.9091" font-family="SFRM1095"><tspan y="-737.654" x="17.008 24.382552 28.604374 34.026197 37.04256 40.05893 44.880754 47.891664 52.713487 58.429857 66.2735 69.28441 78.91714 86.29169 92.01897 96.24079 102.26261 107.68443 113.70625 120.33898 127.41899 130.4299 136.45172 140.66263 144.88445 149.70627 153.92809 160.56082 168.6881 176.52083 186.45902 193.23357 199.8554 205.27722 211.29904 220.94269 228.77542 234.79724 244.42998 252.26271 255.27362 259.49546 269.1391 273.9609 279.68818 286.00456 290.82637 295.0482 298.0591 302.88093 308.90275 313.72456 322.16819 325.1682 334.81187 338.12825 342.35008 347.77189 353.48826 357.71009 361.3319 366.15373 372.17555 381.81919 387.841 392.6628 398.08464 402.90644 405.91737 411.33918 417.361 426.39375 431.21556 436.93193 441.15376 448.98649 455.0083 460.73558 463.7465 466.75743 469.76835 474.59016 484.22288 487.2338 496.87745 501.69926 507.4265 513.7429 518.56478 526.4084 530.68478 535.5066 540.3284 546.3503 550.56118 553.5721 557.4993">ProficientinPython,Flutter,HTML,andCSSwithexperienceinfront-enddevelopment.Skilledincybersecurity</tspan><tspan y="-724.105" x="17.008 24.840733 27.851645 32.073469 41.706205 47.43348 53.455305 58.58258 66.41531 69.42622 74.24805 80.26987 85.69169 94.12442 99.54624 106.48443 112.8008 117.62262 121.89899 129.74263 135.76445 139.97536 145.39719 150.21901 154.44083 157.45174 162.27356 167.09539 174.99358 180.4154 186.43723 196.06996 202.09178 206.3136 211.73543 215.95725 221.68453 226.50635 231.92818 234.93909 239.21546 247.03728 255.31729 260.1391 269.17185 274.59367 280.61549 284.89186 289.11369 293.3355 298.75733 302.97917 307.80097 317.4446 322.86643 328.88825 331.89918 334.8992 337.91014 341.8374 351.17558 355.3974 364.44105 367.45198 373.4738 378.2956 384.01197 388.2338 391.24473 394.5611 403.89927 409.32109 415.3429 424.98655 434.0193 437.0302 441.25205 444.26298 449.68479 455.1066 459.32844 467.76115 474.0884 479.51023 483.73207 488.55387 494.27024 498.49208 501.503 506.9248 513.54666 517.823 522.64486 527.4667 533.4885 537.7103 540.72128 544.6376">withknowledgeofbestpracticesandprotocols.Demonstratedabilitytoidentifyandmitigatepotentialsecurity</tspan><tspan y="-710.555" x="17.008 21.22982 27.251645 31.473465 36.295289 41.71711 45.93893 50.215299 58.04803 64.069858 68.29168 72.513507 77.935329 83.946239 92.989879 99.011699 103.23352 108.65534 114.67716 117.68807 122.509899 131.54264 135.16446 139.44083 144.86266 147.87357 153.60085 156.61176 162.62267 171.66632 175.94269 181.66997 184.68088 187.69179 190.7027 198.58998 206.42272 209.43363 213.65544 223.29909 228.72092 233.54274 238.36457 248.00821 253.43004 257.65187 261.8628 266.6846 272.41188 276.6337 279.64463 285.06645 294.69917 298.921 307.96464 313.98646 318.80827 323.0301 328.4519 331.45195 334.46287">threats.Strongproblem-solvingskillswithkeenattentiontodetail.</tspan></text>
<text xml:space="preserve" transform="matrix(1 0 -0 1 0 841.89)" font-size="11.9552" font-family="SFXC1200" font-weight="bold"><tspan y="-684.153" x="17.008 26.440653 34.665834 42.974699 50.72167 57.69155 65.06791 69.16854 77.14266">Education</tspan></text>
<path transform="matrix(1,0,0,-1,17.008,162.12)" stroke-width=".398" stroke-linecap="butt" stroke-miterlimit="10" stroke-linejoin="miter" fill="none" stroke="#000000" d="M0 0H561.26"/>
<path transform="matrix(1,0,0,-1,17.008,166.34803)" stroke-width=".398" stroke-linecap="butt" stroke-miterlimit="10" stroke-linejoin="miter" fill="none" stroke="#000000" d="M0 0H555.59"/>
<path transform="matrix(1,0,0,-1,17.207,178.50202)" stroke-width=".398" stroke-linecap="butt" stroke-miterlimit="10" stroke-linejoin="miter" fill="none" stroke="#000000" d="M0 0V11.955"/>
<text xml:space="preserve" transform="matrix(1 0 -0 1 0 841.89)" font-size="9.9626" font-family="SFRB1000" font-weight="bold"><tspan y="-666.974" x="42.834 50.475317 55.12785 60.10915 64.373149 69.02568">Degree</tspan></text>
<path transform="matrix(1,0,0,-1,102.602,178.50202)" stroke-width=".398" stroke-linecap="butt" stroke-miterlimit="10" stroke-linejoin="miter" fill="none" stroke="#000000" d="M0 0V11.955"/>
<text xml:space="preserve" transform="matrix(1 0 -0 1 0 841.89)" font-size="9.9626" font-family="SFRB1000" font-weight="bold"><tspan y="-666.974" x="197.65 201.60515 207.13439 211.05965 214.94507 217.71468 221.6001 227.12934 231.01474">Institute</tspan></text>
<path transform="matrix(1,0,0,-1,330.726,178.50202)" stroke-width=".398" stroke-linecap="butt" stroke-miterlimit="10" stroke-linejoin="miter" fill="none" stroke="#000000" d="M0 0V11.955"/>
<text xml:space="preserve" transform="matrix(1 0 -0 1 0 841.89)" font-size="9.9626" font-family="SFRB1000" font-weight="bold"><tspan y="-666.974" x="335.907 342.99043 347.9717 352.81355 357.07756 365.92433 374.22315 381.8844 387.41365 390.18324 395.1745 399.82704 404.09104 408.0163 410.7859 414.39234">Board/University</tspan></text>
<path transform="matrix(1,0,0,-1,424.961,178.50202)" stroke-width=".398" stroke-linecap="butt" stroke-miterlimit="10" stroke-linejoin="miter" fill="none" stroke="#000000" d="M0 0V11.955"/>
<text xml:space="preserve" transform="matrix(1 0 -0 1 0 841.89)" font-size="9.9626" font-family="SFRB1000" font-weight="bold"><tspan y="-666.974" x="431.103 438.296 446.1266 452.10414 459.6259 464.60719 471.13267 475.7852 480.0492 484.4726 489.12513 494.3754 498.2608 503.10264 508.08393">CGPA/Percentage</tspan></text>
<path transform="matrix(1,0,0,-1,518.877,178.50202)" stroke-width=".398" stroke-linecap="butt" stroke-miterlimit="10" stroke-linejoin="miter" fill="none" stroke="#000000" d="M0 0V11.955"/>
<text xml:space="preserve" transform="matrix(1 0 -0 1 0 841.89)" font-size="9.9626" font-family="SFRB1000" font-weight="bold"><tspan y="-666.974" x="535.415 542.10989 546.7624 551.6042">Year</tspan></text>
<path transform="matrix(1,0,0,-1,572.399,178.50202)" stroke-width=".398" stroke-linecap="butt" stroke-miterlimit="10" stroke-linejoin="miter" fill="none" stroke="#000000" d="M0 0V11.955"/>
<path transform="matrix(1,0,0,-1,17.008,178.70203)" stroke-width=".398" stroke-linecap="butt" stroke-miterlimit="10" stroke-linejoin="miter" fill="none" stroke="#000000" d="M0 0H555.59"/>
<path transform="matrix(1,0,0,-1,17.207,190.85602)" stroke-width=".398" stroke-linecap="butt" stroke-miterlimit="10" stroke-linejoin="miter" fill="none" stroke="#000000" d="M0 0V11.955"/>
<text xml:space="preserve" transform="matrix(1 0 -0 1 0 841.89)" font-size="9.9626" font-family="SFRM1000"><tspan y="-654.621" x="33.344 40.397523 43.167127 49.533227 53.95662 58.10106 66.947849 74.14085 79.67009">B.TechCSE</tspan></text>
<path transform="matrix(1,0,0,-1,102.602,190.85602)" stroke-width=".398" stroke-linecap="butt" stroke-miterlimit="10" stroke-linejoin="miter" fill="none" stroke="#000000" d="M0 0V11.955"/>
<text xml:space="preserve" transform="matrix(1 0 -0 1 0 841.89)" font-size="9.9626" font-family="SFRM1000"><tspan y="-654.621" x="153.977 161.03054 165.45394 170.98317 176.5124 180.9358 184.81127 192.00428 199.47623 205.00547 207.77507 212.76633 217.18973 221.09506 225.02033 227.78993 231.38645 235.80985 238.58942 246.41007 253.63295 261.1049 266.08619 268.85578 274.385">BennettUniversity,GrNoida</tspan></text>
<path transform="matrix(1,0,0,-1,330.726,190.85602)" stroke-width=".398" stroke-linecap="butt" stroke-miterlimit="10" stroke-linejoin="miter" fill="none" stroke="#000000" d="M0 0V11.955"/>
<text xml:space="preserve" transform="matrix(1 0 -0 1 0 841.89)" font-size="9.9626" font-family="SFRM1000"><tspan y="-654.621" x="366.604 374.07597 381.8966">UGC</tspan></text>
<path transform="matrix(1,0,0,-1,424.961,190.85602)" stroke-width=".398" stroke-linecap="butt" stroke-miterlimit="10" stroke-linejoin="miter" fill="none" stroke="#000000" d="M0 0V11.955"/>
<text xml:space="preserve" transform="matrix(1 0 -0 1 0 841.89)" font-size="9.9626" font-family="SFRM1000"><tspan y="-654.621" x="430.141 435.12229 437.89189 442.87318 451.172 455.04747 462.24046 465.01005 467.77964 473.87675 478.85804 482.7335 491.58027 497.1095 501.5329 509.83177">8.23(Till5thSem)</tspan></text>
<path transform="matrix(1,0,0,-1,518.877,190.85602)" stroke-width=".398" stroke-linecap="butt" stroke-miterlimit="10" stroke-linejoin="miter" fill="none" stroke="#000000" d="M0 0V11.955"/>
<text xml:space="preserve" transform="matrix(1 0 -0 1 0 841.89)" font-size="9.9626" font-family="SFRM1000"><tspan y="-654.621" x="524.058 529.0393 534.0206 539.00198 543.9833 547.30087 552.28219 557.2635 562.2448">2020-2024</tspan></text>
<path transform="matrix(1,0,0,-1,572.399,190.85602)" stroke-width=".398" stroke-linecap="butt" stroke-miterlimit="10" stroke-linejoin="miter" fill="none" stroke="#000000" d="M0 0V11.955"/>
<path transform="matrix(1,0,0,-1,17.008,191.055)" stroke-width=".398" stroke-linecap="butt" stroke-miterlimit="10" stroke-linejoin="miter" fill="none" stroke="#000000" d="M0 0H555.59"/>
<path transform="matrix(1,0,0,-1,17.207,203.21002)" stroke-width=".398" stroke-linecap="butt" stroke-miterlimit="10" stroke-linejoin="miter" fill="none" stroke="#000000" d="M0 0V11.955"/>
<text xml:space="preserve" transform="matrix(1 0 -0 1 0 841.89)" font-size="9.9626" font-family="SFRM1000"><tspan y="-642.267" x="22.388 27.917244 32.340639 37.86988 40.639486 45.620786 52.84367 58.372915 62.796308 67.2197 72.201007 77.73025 83.25949 88.24079 92.14613">SeniorSecondary</tspan></text>
<path transform="matrix(1,0,0,-1,102.602,203.21002)" stroke-width=".398" stroke-linecap="butt" stroke-miterlimit="10" stroke-linejoin="miter" fill="none" stroke="#000000" d="M0 0V11.955"/>
<text xml:space="preserve" transform="matrix(1 0 -0 1 0 841.89)" font-size="9.9626" font-family="SFRM1000"><tspan y="-642.267" x="154.399 161.87096 169.89086 175.42009 178.1897 182.06516 184.83477 189.81606 198.6728 205.8658 208.6354 213.6167 217.54196 221.46723 225.89063 229.81589 232.5855 240.3364 245.86563 248.63524 251.40485 256.93409 260.80955 268.2815 275.05607">AmbitionClasses,Kullu(HP)</tspan></text>
<path transform="matrix(1,0,0,-1,330.726,203.21002)" stroke-width=".398" stroke-linecap="butt" stroke-miterlimit="10" stroke-linejoin="miter" fill="none" stroke="#000000" d="M0 0V11.955"/>
<text xml:space="preserve" transform="matrix(1 0 -0 1 0 841.89)" font-size="9.9626" font-family="SFRM1000"><tspan y="-642.267" x="357.162 364.63395 371.4085 378.46205 386.21296 391.7422">HPBOSE</tspan></text>
<path transform="matrix(1,0,0,-1,424.961,203.21002)" stroke-width=".398" stroke-linecap="butt" stroke-miterlimit="10" stroke-linejoin="miter" fill="none" stroke="#000000" d="M0 0V11.955"/>
<path transform="matrix(1,0,0,-1,518.877,203.21002)" stroke-width=".398" stroke-linecap="butt" stroke-miterlimit="10" stroke-linejoin="miter" fill="none" stroke="#000000" d="M0 0V11.955"/>
<text xml:space="preserve" transform="matrix(1 0 -0 1 0 841.89)" font-size="9.9626" font-family="SFRM1000"><tspan y="-642.267" x="535.678 540.6593 545.6406 550.62197">2019</tspan></text>
<path transform="matrix(1,0,0,-1,572.399,203.21002)" stroke-width=".398" stroke-linecap="butt" stroke-miterlimit="10" stroke-linejoin="miter" fill="none" stroke="#000000" d="M0 0V11.955"/>
<path transform="matrix(1,0,0,-1,17.008,203.409)" stroke-width=".398" stroke-linecap="butt" stroke-miterlimit="10" stroke-linejoin="miter" fill="none" stroke="#000000" d="M0 0H555.59"/>
<path transform="matrix(1,0,0,-1,17.207,215.56299)" stroke-width=".398" stroke-linecap="butt" stroke-miterlimit="10" stroke-linejoin="miter" fill="none" stroke="#000000" d="M0 0V11.955"/>
<text xml:space="preserve" transform="matrix(1 0 -0 1 0 841.89)" font-size="9.9626" font-family="SFRM1000"><tspan y="-629.913" x="30.149 39.274744 44.256044 48.131494 52.03683 54.806436 59.229829 64.75907 67.52867 72.50997 76.38542 79.15502 84.13632">Matriculation</tspan></text>
<path transform="matrix(1,0,0,-1,102.602,215.56299)" stroke-width=".398" stroke-linecap="butt" stroke-miterlimit="10" stroke-linejoin="miter" fill="none" stroke="#000000" d="M0 0V11.955"/>
<text xml:space="preserve" transform="matrix(1 0 -0 1 0 841.89)" font-size="9.9626" font-family="SFRM1000"><tspan y="-629.913" x="140.828 148.5789 154.10814 161.33103 167.55765 172.53894 178.06818 186.65595 191.62728 198.00334 201.8788 207.40804 215.14899 219.07425 224.60349 229.30583 236.49883 243.7516 249.28084 252.05045 257.03175 265.8785 269.80378 273.9482 279.47746 284.7377 289.719">OurLadyofthesnowshighschool</tspan></text>
<path transform="matrix(1,0,0,-1,330.726,215.56299)" stroke-width=".398" stroke-linecap="butt" stroke-miterlimit="10" stroke-linejoin="miter" fill="none" stroke="#000000" d="M0 0V11.955"/>
<text xml:space="preserve" transform="matrix(1 0 -0 1 0 841.89)" font-size="9.9626" font-family="SFRM1000"><tspan y="-629.913" x="366.292 369.8885 377.08149 382.61073">ICSE</tspan></text>
<path transform="matrix(1,0,0,-1,424.961,215.56299)" stroke-width=".398" stroke-linecap="butt" stroke-miterlimit="10" stroke-linejoin="miter" fill="none" stroke="#000000" d="M0 0V11.955"/>
<path transform="matrix(1,0,0,-1,518.877,215.56299)" stroke-width=".398" stroke-linecap="butt" stroke-miterlimit="10" stroke-linejoin="miter" fill="none" stroke="#000000" d="M0 0V11.955"/>
<text xml:space="preserve" transform="matrix(1 0 -0 1 0 841.89)" font-size="9.9626" font-family="SFRM1000"><tspan y="-629.913" x="535.678 540.6593 545.6406 550.62197">2017</tspan></text>
<path transform="matrix(1,0,0,-1,572.399,215.56299)" stroke-width=".398" stroke-linecap="butt" stroke-miterlimit="10" stroke-linejoin="miter" fill="none" stroke="#000000" d="M0 0V11.955"/>
<path transform="matrix(1,0,0,-1,17.008,215.763)" stroke-width=".398" stroke-linecap="butt" stroke-miterlimit="10" stroke-linejoin="miter" fill="none" stroke="#000000" d="M0 0H555.59"/>
<text xml:space="preserve" transform="matrix(1 0 -0 1 0 841.89)" font-size="11.9552" font-family="SFXC1200" font-weight="bold"><tspan y="-605.549" x="17.008 31.294466 39.268587 47.32639 60.68035 70.11301 78.242549 85.58304 92.56487 100.62268 104.72331 111.70515 120.18138 127.92835">WorkExperience</tspan></text>
<path transform="matrix(1,0,0,-1,17.008,240.72504)" stroke-width=".398" stroke-linecap="butt" stroke-miterlimit="10" stroke-linejoin="miter" fill="none" stroke="#000000" d="M0 0H561.26"/>
<text xml:space="preserve" transform="matrix(1 0 -0 1 0 841.89)" font-size="5.9776" font-family="LMMathSymbols6" font-style="italic"><tspan y="-588.7" x="17.008">&#x2022;</tspan></text>
<text xml:space="preserve" transform="matrix(1 0 -0 1 0 841.89)" font-size="9.9626" font-family="SFRB1000" font-weight="bold"><tspan y="-587.63406" x="25.807999 33.000997 38.53024 42.79423 47.058225 51.71076 56.96105 60.846464 63.616067 72.19386 79.117877 84.099178 88.36317 93.62342 96.39302 101.922267 110.22111 115.06293 122.30573 130.4651 135.99434 140.97563 144.02419 147.64061 154.55466 159.39649 163.66048 171.63056 179.27187 183.9244 188.9057 193.55823 196.32784 201.30913 207.11731 211.76984 219.35138 223.30654 228.55683 232.44223 237.09476 241.35875 250.2155 255.05733 262.26029 269.83186 274.48439 282.78324 287.76454 291.64994 299.62 305.14924 309.03465 313.87648 317.76188 322.4144 326.28987 334.09059 339.07188 341.84147 347.3707 352.21253">CurrentlyworkingasaSoftwareDeveloperInternatRemoteState(Noida)</tspan></text>
<text xml:space="preserve" transform="matrix(1 0 -0 1 0 841.89)" font-size="9.9626" font-family="SFRM1000"><tspan y="-587.63406" x="356.04499">,</tspan></text>
<text xml:space="preserve" transform="matrix(1 0 -0 1 0 841.89)" font-size="9.9626" font-family="SFTI1000" font-style="italic"><tspan y="-587.63406" x="536.06 541.1509 546.24179 551.33267 556.4235">2023-</tspan></text>
<text xml:space="preserve" transform="matrix(1 0 -0 1 0 841.89)" font-size="11.9552" font-family="SFXC1200" font-weight="bold"><tspan y="-552.55007" x="17.007996 26.799305 34.474546 42.44866 48.03174 55.013578 62.760549 70.13691">Projects</tspan></text>
<path transform="matrix(1,0,0,-1,17.008,293.724)" stroke-width=".398" stroke-linecap="butt" stroke-miterlimit="10" stroke-linejoin="miter" fill="none" stroke="#000000" d="M0 0H561.26"/>
<text xml:space="preserve" transform="matrix(1 0 -0 1 0 841.89)" font-size="5.9776" font-family="LMMathSymbols6" font-style="italic"><tspan y="-535.417" x="17.008">&#x2022;</tspan></text>
<text xml:space="preserve" transform="matrix(1 0 -0 1 0 841.89)" font-size="9.9626" font-family="SFRB1000" font-weight="bold"><tspan y="-534.352" x="25.807999 33.608716 38.26125 45.454248 52.69706 60.218824 65.74806">NewsApp</tspan></text>
<text xml:space="preserve" transform="matrix(1 0 -0 1 0 841.89)" font-size="8.9664" font-family="SFTI0900" font-style="italic"><tspan y="-534.352" x="471.51203 476.81117 481.0433 488.56614 493.2735 497.98088 502.68824 510.69523 517.27658 525.52566 530.233 533.6402 537.8723 545.8703 550.57766 555.285 559.9923">Feb2023-March2023</tspan><tspan y="-522.397" x="25.808014 32.756975 36.989114 41.221254 45.453393 47.80259 52.50995 56.751058 60.507978 68.50601 76.50404 83.345409 87.577548 93.69263 100.75815 107.59951 112.30687 120.3049 125.245388 129.01128 131.8357 137.00931 144.53212 150.53961 152.88881 157.8293 160.88684 163.94438 168.17653 172.05898 178.17406 182.88143 187.58879 192.7624 197.93602 200.28522 203.10964 208.28325 215.81504 219.57196 224.27933 227.33687 235.3349 238.15932 241.57552 246.28289 251.4565 254.51404 257.80473 262.03688 267.21049 275.20854 279.9159 285.0895 293.08757 296.85346 301.56083 305.79298 310.02513 313.3158 317.54795 322.72157 330.7196 335.42698 339.19288 343.42503 347.19093 351.42308 354.48063">DevelopedaNewsAppusingFlutter,handlingbothfront-endandback-endaspects</tspan></text>
<text xml:space="preserve" transform="matrix(1 0 -0 1 0 841.89)" font-size="8.9664" font-family="SFRB0900" font-weight="bold"><tspan y="-522.397" x="537.379 544.6239 547.1793 550.77487 555.6436 560.7634">Github</tspan></text>
<text xml:space="preserve" transform="matrix(1 0 -0 1 0 841.89)" font-size="9.9626" font-family="LMRoman10" font-weight="bold"><tspan y="-508.78898" x="24.562012">&#x2013;</tspan></text>
<text xml:space="preserve" transform="matrix(1 0 -0 1 0 841.89)" font-size="9.9626" font-family="SFRM1000"><tspan y="-508.78898" x="33.692014 40.88501 46.414255 54.155195 59.136495 64.66573 70.19498 72.96458 75.73418 80.15757 85.13887 89.01432 91.78392 96.76522 105.62197 112.53602 117.51732 124.760128 130.28937 134.71277 138.63803 141.40764 146.38893 151.91817 156.34157 165.19832 169.07378 177.37262 182.90186 186.80719 191.50954 196.76979 199.5394 205.06864 212.80959 218.33882 222.26409 226.69745 230.59282 237.8456 245.03859 247.8082 251.68366 260.53044 266.05967 271.5889 274.90644 278.7819 283.76319 287.08073 292.60997 297.59126 301.4667 309.20765 311.97724 317.50648 320.55503 325.53633 329.44166 337.7405 342.7218 346.59727 349.36686 354.34815 363.2049 368.1862 377.03297 382.01426 384.78385 389.76515 395.29438 400.27568 406.3628 410.7862 415.7675 420.1909 425.45115 429.3266">Theapplicationwasdesignedtoprovideuserswithup-to-dateinformationonglobalevents</tspan></text>
<text xml:space="preserve" transform="matrix(1 0 -0 1 0 841.89)" font-size="9.9626" font-family="LMRoman10" font-weight="bold"><tspan y="-496.83399" x="24.562012">&#x2013;</tspan></text>
<text xml:space="preserve" transform="matrix(1 0 -0 1 0 841.89)" font-size="9.9626" font-family="SFRM1000"><tspan y="-496.83399" x="33.692014 40.88501 46.414255 54.155195 59.136495 64.66573 73.522487 80.43653 85.41783 92.66064 98.18988 103.719127 106.48872 109.25832 116.46128 121.990528 125.91579 128.6854 134.21463 142.51348 149.01906 151.78867 157.3179 161.19336 165.06882 169.49222 173.39756 179.48471 184.466 189.99524 198.84203 204.37126 208.24672 211.01633 213.78594 216.5655 220.9889 225.41231 234.2591 239.78833 244.21173 251.40473 255.32999 260.31129 264.2166 269.1979 271.9675 276.9488 282.47804 288.56517 292.4406 300.73945 309.0383 314.0196 319.01087 326.7518 334.22377 340.99833 347.91236 352.33576 357.31706 360.08665 362.85624 370.109 373.15757 378.13887 385.36174 389.23719 394.76643 402.50736 405.27696 410.25825 414.1337 418.5571 422.48237 429.67536 435.2046 439.628 446.82099 454.07377 459.603 465.4112 470.94044 475.92173 479.79719 484.22059 488.14585">TheappwasbuiltusingFlutter,andutilizednewsorg.apitomakeAPIcallsforthelatestnewsupdates.</tspan></text>
<text xml:space="preserve" transform="matrix(1 0 -0 1 0 841.89)" font-size="5.9776" font-family="LMMathSymbols6" font-style="italic"><tspan y="-478.241" x="17.008013">&#x2022;</tspan></text>
<text xml:space="preserve" transform="matrix(1 0 -0 1 0 841.89)" font-size="9.9626" font-family="SFRB1000" font-weight="bold"><tspan y="-477.175" x="25.808014 32.50288 37.344705 40.114309 45.095609 49.3596 54.201425 59.451715 66.65467 74.17644 79.70568">ValorantApp</tspan></text>
<text xml:space="preserve" transform="matrix(1 0 -0 1 0 841.89)" font-size="8.9664" font-family="SFTI0900" font-style="italic"><tspan y="-477.175" x="492.558 499.39939 504.10676 507.9892 510.8136 516.4534 521.16079 525.8681 530.57546 538.5734 545.1547 553.4038 558.11117 565.87606 570.5834 575.28176 579.9891">April2023-May2023</tspan><tspan y="-465.22" x="25.808014 32.756975 36.989114 41.221254 45.453393 47.80259 52.50995 56.751058 60.507978 68.50601 76.50404 82.619129 86.851268 94.38304 99.0904 103.79776 108.496158 110.84535 113.66977 117.43565 122.14301 125.200557 128.02497 132.73233 141.19661 146.1371 149.90299 152.7274 157.90102 165.42383 172.2652 176.49735 180.74742 183.80496 186.62938 189.46277 193.22866 199.34374 207.34177 213.58238 217.34828 222.05565 226.2878 232.636 234.9852 237.80962 242.04177 245.45796 250.16533 254.04778 258.51304 264.6281 270.7432 275.45057 278.27497 282.5071 290.50517 293.32957 298.50318 302.73533 307.4427 309.79188 314.02403 317.78993 325.78797 329.5449 334.25227 337.3098 345.30787 348.13227 351.54847 356.25584 361.42945 364.487 367.77769 372.00984 377.18345 385.1815 389.88887 395.06248 403.06053 406.82643 411.53379 415.76594 419.99809 423.28877 427.5209 432.69453 440.69258 445.39994 449.63209 453.86424 458.09638 460.44557 465.15293 469.8603 477.3831 481.61524 486.78886 489.8464">DevelopedawebapplicationusingNext.js,aReactlibrary,whichinvolvedbothfront-endandback-enddevelopment.</tspan></text>
<text xml:space="preserve" transform="matrix(1 0 -0 1 0 841.89)" font-size="8.9664" font-family="SFRB0900" font-weight="bold"><tspan y="-465.22" x="557.37698 564.6218 567.17727 570.77279 575.64157 580.76138">Github</tspan></text>
<text xml:space="preserve" transform="matrix(1 0 -0 1 0 841.89)" font-size="9.9626" font-family="LMRoman10" font-weight="bold"><tspan y="-451.613" x="24.56195">&#x2013;</tspan></text>
<text xml:space="preserve" transform="matrix(1 0 -0 1 0 841.89)" font-size="9.9626" font-family="SFRM1000"><tspan y="-451.613" x="33.69195 40.88495 46.414194 53.647039 58.628339 64.15758 69.68682 72.45642 75.22602 79.649417 84.630718 88.506168 91.275768 96.257068 104.595767 110.12501 114.00046 116.77006 119.53966 122.30926 126.73265 131.15605 137.89076 144.52587 149.50716 152.27677 157.25806 161.16339 166.14469 171.39498 178.07988 185.55184 192.3264 198.73235 202.6078 210.39855 215.92778 218.69739 222.62265 228.15189 230.9215 235.62384 243.68358 247.55904 253.09824 260.32115 265.85038 269.77565 274.19905 278.10438 280.87397 287.60868 292.03208 297.5613 301.46665 305.37199 309.79539 315.04566 321.73057 324.50016 330.0294 333.34693 338.32823 343.3095 351.60838 358.84123 362.76649 368.29573 373.277 381.6157 384.38529 388.26075 392.68415 400.983 404.90827 411.9319 415.52839 423.86708 430.50218 435.48347 438.25306 443.23435 447.13969 452.12098 457.38124 461.25669 466.93537 470.81083 476.34007 483.56297 487.48823 493.01747 497.99876 506.33744 510.24278 514.66616 517.7147 521.62008 526.04348 529.96878 535.498 539.9214 546.6561 551.0795 556.06088 560.48428 564.3896">TheapplicationutilizesValorantAPItodisplaytheuser&#x2019;scurrentin-gameshopitems.InValorant,theshoprefreshesevery</tspan><tspan y="-439.65803" x="33.69195 38.673254 47.221166 52.75041 57.73171 63.260953 67.16629 71.09155 77.48754 82.46884 87.998088 97.09394 101.0192 106.27946 109.04906 114.5783 122.070178 127.051479 130.95682 138.94683 144.47606 150.0053 152.7749 158.03516 163.56439 171.5544 174.60295 179.58425 187.05619 191.47959 196.46088 200.60533 209.70117 215.23041 218.00002 222.70236 227.68367 232.10707 236.0124 243.9526 251.42456 258.91645 263.06089 268.59013 273.01353 277.15797 282.4182 285.1878 290.71705 299.26496 303.1404 308.66966 316.65968 320.58494 326.11418 331.09547 340.1913 344.09666 348.52006 353.7803 359.30955 362.07914 365.98448 370.40788 377.89976 382.88105 388.68925 393.11265 398.64189 401.41148 406.9407 415.48863 419.36408 424.8933 432.88334 437.86463 442.84593 451.14479 455.56819 461.96415 469.15715 474.68638 477.45597 481.6004 490.69627 493.46586 500.95774 504.8332 507.60279 515.9016 520.325 523.6426 528.066 533.0473 538.57656 542.5118 548.041 556.33987 559.10946 564.6387">24hours,andskinsareuniqueforeachplayer.Ascheckingtheshoprequiresopeningthegame,whichistime-consuming</tspan><tspan y="-427.70204" x="33.69195 38.673254 44.202497 53.21865 57.12399 61.547384 65.47265 70.45395 75.98319 79.888538 84.31193 88.73532 92.052867 94.822467 100.072757 103.948207 108.3716 113.90084 117.8261 120.5957 125.58697 130.01036 136.30673 140.18219 145.71143 153.62174 158.60303 164.13227 169.6615 172.4311 175.20072 179.62412 184.60541 188.48087 191.25048 196.23177 205.24791 210.77715 214.68248 219.38483 224.64508 227.41469 232.94393 237.36733 244.7795 249.76079 258.77696 263.20036 265.96665 268.73295 271.4992 275.9226 278.6922 283.1156 288.37586 295.73823 299.66349 304.64479 307.41438 312.9436 316.81907 319.58866 324.56996 333.5861 338.83638 347.58354 352.56483 355.3344 358.104 362.80635 369.99934 372.76893 378.29817 386.76637 392.2956 396.22087 400.64427 404.5496 411.96177 415.83723 424.30543 427.075 432.0563 437.0376 439.8072 448.82334 453.80464 459.33387 463.75727 471.66758 476.64888 482.1781 491.19425 496.4545 499.2241 503.6475 514.3274 518.2028 523.742 528.1654 530.935 538.3273 542.7507 548.2799 552.18527 556.0906 560.514 565.7643">andresource-intensive,theapplicationprovidesanefficientsolutionbyallowinguserstologinonceandviewtheircurrent</tspan><tspan y="-415.74705" x="33.69195 37.617219 43.14646 48.12776 56.974554 59.744157 63.619607 68.043 76.34184 83.59461 90.78761 93.55721 97.43266 106.27945 110.70284 115.68414 119.609409 124.0328">shopitemswithease.</tspan></text>
<text xml:space="preserve" transform="matrix(1 0 -0 1 0 841.89)" font-size="5.9776" font-family="LMMathSymbols6" font-style="italic"><tspan y="-397.15406" x="17.007952">&#x2022;</tspan></text>
<text xml:space="preserve" transform="matrix(1 0 -0 1 0 841.89)" font-size="9.9626" font-family="SFRB1000" font-weight="bold"><tspan y="-396.08906" x="25.807953 33.379529 37.33468 44.527677 52.04944 55.366987 62.93856 67.591098 75.88994 80.87124 84.75665 92.72673 96.681888 101.94214 105.82755 110.47012 115.99937 119.93459 122.70419 127.68549 135.65558 142.84857 147.6904 151.95439 159.92447 167.44623 172.97547">RICA-RemoteIntensiveCareApp</tspan></text>
<text xml:space="preserve" transform="matrix(1 0 -0 1 0 841.89)" font-size="8.9664" font-family="SFTI0900" font-style="italic"><tspan y="-396.08906" x="480.45796 487.5145 491.74665 498.09489 502.80226 507.5096 512.217 520.21499 526.79629 533.63766 538.345 545.8767 550.58407 555.2824 559.98977">Oct2021-Nov2021</tspan><tspan y="-384.13407" x="25.807953 32.756914 36.98905 41.22119 45.45333 47.80253 52.509889 56.742029 60.507917 68.50595 71.56349 76.27085 83.79366 86.61808 90.03428 94.74164 99.91525 102.97279 106.263469 110.495609 115.66922 123.66725 127.433139 132.13153 139.65435 143.89546 148.60283 153.77645 158.00859 163.1822 169.53041 174.23778 180.35286 188.35089 194.47495 198.70709 206.2299 210.93727 215.64464 220.352 222.7012 225.52562 229.28255 233.98992 237.04746 239.87187 244.57924 253.04352 257.984 261.7499 264.5743 269.74794 277.2797 284.12107 290.7024 298.95149 308.0165 312.72389 317.8975 325.89555 332.47688 337.65049 346.11479 350.82215 355.5295 359.2954 362.35298 366.11888 374.1169 378.82429 387.28858 394.4079 397.2323 400.28987 404.99723 409.9377 414.16987">Developedthefront-endcomponentofawebapplicationusingHTMLandCSShostedonGithub.</tspan></text>
<text xml:space="preserve" transform="matrix(1 0 -0 1 0 841.89)" font-size="8.9664" font-family="SFRB0900" font-weight="bold"><tspan y="-384.13407" x="537.37899 544.62387 547.17929 550.7748 555.64358 560.76339">Github</tspan></text>
<text xml:space="preserve" transform="matrix(1 0 -0 1 0 841.89)" font-size="9.9626" font-family="LMRoman10" font-weight="bold"><tspan y="-370.52607" x="24.56195">&#x2013;</tspan></text>
<text xml:space="preserve" transform="matrix(1 0 -0 1 0 841.89)" font-size="9.9626" font-family="SFRM1000"><tspan y="-370.52607" x="33.69195 40.88495 46.414194 54.07543 59.056734 64.585979 70.11522 72.88482 75.65442 80.07781 85.05911 88.93456 91.70416 96.68546 105.44259 112.3666 117.3479 124.501049 130.03029 134.45369 138.37895 141.14856 146.12985 151.65909 156.08249 164.84957 168.72502 176.94416 182.47339 186.37873 191.08107 196.34133 199.11093 204.64017 212.29145 215.06105 220.60025 226.12949 228.8991 234.14939 236.92896 242.45819 247.98743 252.96872 255.73833 262.89149 270.08448 272.85408 276.72953 285.4966 293.70579 297.63105 302.61235 305.6609 313.32215 318.30345 323.83268 332.59977 337.02317 342.00447 347.25474 352.23603 356.65943 362.18867 364.95826 369.38166 374.6419 381.74525 386.72654 389.49613 393.37159 397.79499 401.70033 407.22956 412.21086 416.0863 418.8559 423.8372 431.49845 435.3739 443.59306 448.84336 451.61296 455.54817 458.31776 462.1932 464.9628 470.49205 478.7012 483.1246 487.02995 491.73228 498.92527 504.4545 508.8779 517.645 523.17428 528.7035 534.2327 537.0023 539.7719 547.43319 552.4145 556.3198 560.7432 565.72457">Theapplicationwasdesignedtoprovideindividualswithasafeandconvenientalternativetovisitingcrowdedpublicareas</tspan><tspan y="-358.57109" x="33.69195 39.221197 44.75044 48.655778 51.42538 56.954626 65.25347 69.12892 74.658168 82.409069 87.93831 92.91961 98.44885 103.978099 108.40149 116.70033 119.46993 123.893329 129.98047 132.75008 138.27931 142.70272 145.47232 151.00156 156.53079 159.3004 164.82964 173.12848 178.65772 183.639 187.56427 193.0935 195.86312 199.73857 204.71987 207.48947 211.4247">duringthepandemic,includinghospitals.</tspan></text>
<text xml:space="preserve" transform="matrix(1 0 -0 1 0 841.89)" font-size="9.9626" font-family="LMRoman10" font-weight="bold"><tspan y="-346.6161" x="24.56195">&#x2013;</tspan></text>
<text xml:space="preserve" transform="matrix(1 0 -0 1 0 841.89)" font-size="9.9626" font-family="SFRM1000"><tspan y="-346.6161" x="33.69195 40.187566 45.168867 49.044317 51.81392 56.237314 61.497568 65.37302 72.74534 79.659389 84.08278 87.98812 95.86854 100.84984 106.37908 109.14868 117.0291 120.90455 129.33292 133.25818 137.40264 142.93187 147.35527 152.8845 158.4237 161.19332 169.06378 174.04508 179.57431 182.34392 185.11353 190.64276 198.52318 203.50447 209.0337 214.84189 219.82318 222.59279 227.84308 231.71854 240.01738 244.44078 249.69107 253.56653 260.94883 268.1418 270.9114 274.78688 283.76316 289.2924 293.7158 298.69709 301.46669 305.34214 310.87138 315.29478 320.27607 324.1814 332.06184 337.59107 341.4964 346.4777 349.52626 353.94966 357.8749 361.80018 364.56977 369.55107 375.0803 380.06159 382.83119 390.21348 395.19477 400.724 409.7003 413.60563 418.02903 422.45243 426.87583 429.64543 434.6267 442.50715 446.41249 450.83589 459.13475 464.11604 467.9915 475.87193 484.17079 488.59419 494.1234 496.893 501.3164 506.2977 512.51437 516.93777 521.91909 527.4483 531.3736 536.90286 539.6724 543.54788 548.5292 552.4046 555.1742 560.1555 565.68478">Patientswereabletoscheduleonlineappointmentswithhealthcareprofessionalsandreceiveremotemedicalconsultations</tspan><tspan y="-334.6611" x="33.69195 38.94224 47.520044 53.049287 57.482645 61.40791 65.83131 69.73665 72.50625 78.03549 80.80509 86.334339 94.63318 98.50863 104.03787 108.461269 111.230869 118.45375 122.37901 127.63927 135.93811 141.46735 145.3428 150.3241 158.62294 162.5482">bydescribingtheirsymptoms.</tspan></text>
<text xml:space="preserve" transform="matrix(1 0 -0 1 0 841.89)" font-size="5.9776" font-family="LMMathSymbols6" font-style="italic"><tspan y="-318.9021" x="17.007952">&#x2022;</tspan></text>
<text xml:space="preserve" transform="matrix(1 0 -0 1 0 841.89)" font-size="9.9626" font-family="SFRB1000" font-weight="bold"><tspan y="-317.8371" x="25.807953 33.379529 36.14913 40.572526 44.45794 47.227544 52.208845 57.738088 62.57991 66.8439">Rictionary</tspan></text>
<text xml:space="preserve" transform="matrix(1 0 -0 1 0 841.89)" font-size="8.9664" font-family="SFTI0900" font-style="italic"><tspan y="-317.8371" x="474.81398 479.64686 484.58735 489.76097 497.28379 501.99116 506.69853 511.40589 519.4039 525.98519 530.81808 535.75857 538.1077 545.8726 550.571 555.2783 559.98568">June2021-July2021</tspan><tspan y="-305.8821" x="25.807953 32.756914 35.58133 43.579359 46.636899 51.344259 58.867067 61.691484 65.10768 69.81504 74.988658 81.33687 85.56901 90.74262 98.740657 102.98176 107.68912 111.57157 117.919788 122.627147 127.80076 135.79878 140.03093 143.43816 147.20406 151.91143 154.96897 158.72589 166.7329 169.79044 174.4978 182.02062 184.84503 192.36785 197.07521 201.30736 205.5395">Didthefrontendpartandcreatedtheimages</tspan></text>
<text xml:space="preserve" transform="matrix(1 0 -0 1 0 841.89)" font-size="8.9664" font-family="SFRB0900" font-weight="bold"><tspan y="-305.8821" x="537.37899 544.62387 547.17929 550.7748 555.64358 560.76339">Github</tspan></text>
<text xml:space="preserve" transform="matrix(1 0 -0 1 0 841.89)" font-size="9.9626" font-family="LMRoman10" font-weight="bold"><tspan y="-292.2741" x="24.56195">&#x2013;</tspan></text>
<text xml:space="preserve" transform="matrix(1 0 -0 1 0 841.89)" font-size="9.9626" font-family="SFRM1000"><tspan y="-292.2741" x="33.69195 40.88495 46.414194 54.155134 59.136434 64.11773 72.41657 80.16747 87.08152 92.06282 99.305629 103.72902 107.63436 112.057758 117.039058 120.914508 125.3379 134.19466 141.38765 144.15726 148.03272 156.8795 160.75496 166.2842 174.02515 179.00644 181.77605 193.39244 198.37374 204.7498 210.27904 214.18437 218.88672 224.14698 226.91658 232.44582 235.21543 240.74466 249.0435 253.4669 258.7172 262.59266 267.01606 270.9214 274.79685 279.77815 282.54774 288.07698 296.37583 300.79924 306.05949 313.25248 318.7817 324.31095 328.21629 330.98588 336.5151 344.81394 348.6894 354.21864 361.96955 367.49879 372.48008 378.0093 383.53855 387.96195 396.2608 399.0304 403.4538">Thegamewascreatedwiththeaimofprovidingentertainmentduringthepandemic.</tspan></text>
<text xml:space="preserve" transform="matrix(1 0 -0 1 0 841.89)" font-size="9.9626" font-family="LMRoman10" font-weight="bold"><tspan y="-280.31913" x="24.56195">&#x2013;</tspan></text>
<text xml:space="preserve" transform="matrix(1 0 -0 1 0 841.89)" font-size="9.9626" font-family="SFRM1000"><tspan y="-280.31913" x="33.69195 37.288454 44.48145 47.251054 52.511308 57.492609 62.473909 65.24351 70.22481 74.6482 81.89101 87.42025 90.18985 94.11511 99.644359 102.413959 107.12627 112.38652 115.15612 120.68536 128.9842 132.88954 137.87084 143.40007 148.9293 153.9106 165.527 168.2966 176.59545 181.57674 186.55803 190.98143 198.22425 203.20554 212.06229 215.93775 221.46698 229.20793 233.1332 237.5566 241.46193 245.88533 250.30873 255.83797 261.9251 266.07954 271.60877 276.59007 279.35966 282.12925 286.55265 292.08189 297.06318 299.83277 305.362 313.66084 319.19007 321.95967 326.662 331.64329 336.06669 339.97203 347.2248 351.10026 359.39909 362.16868 367.6979 372.1213 377.37159 381.24705 384.01664 387.0652 395.64299 399.51844 405.04768 412.79859 417.77989 423.85707 426.9056 431.329 435.7524 442.95539 448.48463 452.90803 458.43727 461.20686 465.63026 469.5057 473.9291 482.77589 485.54548 494.39225 498.81565 503.79695 507.95137 516.79818 519.56777 527.8666 532.8479 537.8292">Itinvolvesdisplayingrandomimagesonthescreen,challengingplayerstoidentifytheobjectdepictedineachimage</tspan></text>
<text xml:space="preserve" transform="matrix(1 0 -0 1 0 841.89)" font-size="11.9552" font-family="SFXC1200" font-weight="bold"><tspan y="-260.23313" x="17.007952 26.990544 33.97238 41.719354 50.207548 58.69574 62.796377 70.54334 78.67288 89.99446 98.0164 106.44482 110.54545 116.94148 123.33752">TechnicalSkills</tspan></text>
<path transform="matrix(1,0,0,-1,17.008,586.041)" stroke-width=".398" stroke-linecap="butt" stroke-miterlimit="10" stroke-linejoin="miter" fill="none" stroke="#000000" d="M0 0H561.26"/>
<text xml:space="preserve" transform="matrix(1 0 -0 1 0 841.89)" font-size="5.9776" font-family="LMMathSymbols6" font-style="italic"><tspan y="-245.416" x="17.008">&#x2022;</tspan></text>
<text xml:space="preserve" transform="matrix(1 0 -0 1 0 841.89)" font-size="9.9626" font-family="SFRB1000" font-weight="bold"><tspan y="-244.351" x="26.282 33.086458 37.35045 42.33175 47.31305 51.57704 56.418867 64.71771 73.016559 75.786159 81.3154 89.61424 95.591808 100.433628 105.96287 110.94417 116.47341 121.31523 126.29653 130.94907">ProgrammingLanguages</tspan></text>
<text xml:space="preserve" transform="matrix(1 0 -0 1 0 841.89)" font-size="9.9626" font-family="SFRM1000"><tspan y="-244.351" x="134.876 143.49367 150.68666 158.43756 166.18846 172.27562 179.05019 184.31044 188.1859 193.71514 198.69643 204.22566 210.31282 217.78478 224.97777 234.10352 240.33014 245.31143 252.50443 258.03367 263.5629 269.66 277.27143 282.25273 286.15806 290.0335 296.12065 301.24143 305.94377 310.64613 315.6274 321.15666 325.58006 329.48539 332.25498 337.7842">:C++,Python,HTML/CSS,Dart,JavaScript</tspan></text>
<text xml:space="preserve" transform="matrix(1 0 -0 1 0 841.89)" font-size="5.9776" font-family="LMMathSymbols6" font-style="italic"><tspan y="-231.056" x="17.00801">&#x2022;</tspan></text>
<text xml:space="preserve" transform="matrix(1 0 -0 1 0 841.89)" font-size="9.9626" font-family="SFRB1000" font-weight="bold"><tspan y="-229.99" x="26.282011 32.36916 37.61945 42.60075 45.370355 52.623128 57.46495 62.994195 71.84098 77.2706 81.53459 86.37642 94.67526 99.3278 106.241847 111.223148 115.48714 120.74739">ToolsandFrameworks</tspan></text>
<text xml:space="preserve" transform="matrix(1 0 -0 1 0 841.89)" font-size="9.9626" font-family="SFRM1000"><tspan y="-229.99" x="124.666019 128.85031 133.97109 139.50032 144.76056 150.01085 153.8863 158.31967 162.21504 168.31217 175.78412 178.55373 182.47899 188.00823 192.98952 199.07668 204.60591 208.48137 214.0106 219.53984 222.30945 227.29074 233.3779 240.15247 245.41272 249.56713 255.09636 260.07768 263.983 272.28187 278.369 284.87458 287.64418 292.62547 300.92433 305.9056 311.99275 318.49833 321.2679 326.79716 330.6726 334.54808 338.97148 342.8768 348.96394 355.33003 360.3113 365.84056 368.61015 373.03355 378.01484 383.54408 389.64118 396.97367 401.39707 406.37837 410.80177 414.67723 420.76435 428.2363 432.6597 437.91996 441.7954 444.565 447.61357">:Jupyter,VisualStudio,Pycharm,Figma,Flutter,Tableau,React,Next.js</tspan></text>
<text xml:space="preserve" transform="matrix(1 0 -0 1 0 841.89)" font-size="5.9776" font-family="LMMathSymbols6" font-style="italic"><tspan y="-216.695" x="17.008019">&#x2022;</tspan></text>
<text xml:space="preserve" transform="matrix(1 0 -0 1 0 841.89)" font-size="9.9626" font-family="SFRB1000" font-weight="bold"><tspan y="-215.63" x="26.282019 33.753969 39.562166 44.2147 48.47869 53.320516 57.20593 59.975534 65.504779 73.80362 79.33286 84.59312 88.51838 92.40379 97.05633 105.35517">OperatingSystems</tspan></text>
<text xml:space="preserve" transform="matrix(1 0 -0 1 0 841.89)" font-size="9.9626" font-family="SFRM1000"><tspan y="-215.63" x="109.28302 113.46731 123.70886 126.47846 132.0077 137.53694 142.24924 149.44223 153.3675 159.45465 165.68128 168.45088 173.70117 179.23041 187.80821 198.88663 206.35858 211.88782 217.41706 221.32239 226.30368 229.07329">:Windows,Linux&#x0026;Android</tspan></text>
<text xml:space="preserve" transform="matrix(1 0 -0 1 0 841.89)" font-size="11.9552" font-family="SFXC1200" font-weight="bold"><tspan y="-195.585" x="17.008019 28.18613 35.16797 48.223047 55.970018 63.944139 72.253009 80.310817 86.288417 93.27025 104.17339 110.3901 118.51964 126.94805 133.92989">Keycoursestaken</tspan></text>
<path transform="matrix(1,0,0,-1,17.008,650.689)" stroke-width=".398" stroke-linecap="butt" stroke-miterlimit="10" stroke-linejoin="miter" fill="none" stroke="#000000" d="M0 0H561.26"/>
<text xml:space="preserve" transform="matrix(1 0 -0 1 0 841.89)" font-size="5.9776" font-family="LMMathSymbols6" font-style="italic"><tspan y="-181.363" x="17.008">&#x2022;</tspan></text>
<text xml:space="preserve" transform="matrix(1 0 -0 1 0 841.89)" font-size="9.9626" font-family="SFRB1000" font-weight="bold"><tspan y="-180.298" x="26.282 33.475 39.004243">CSE</tspan></text>
<text xml:space="preserve" transform="matrix(1 0 -0 1 0 841.89)" font-size="9.9626" font-family="SFRM1000"><tspan y="-180.298" x="45.538003 49.722295 57.33372 62.31502 66.190479 74.48932 80.02853 83.90398 87.799358 93.3286 97.761959 101.637409 107.16665 111.07199 115.495388 122.73819 127.71949 133.24874 142.09552 149.56748 152.33708 157.31838 162.29967 166.205 168.97461 172.85007 178.3793 186.67815 190.60341 196.69057 203.46514 208.72539 212.60085 218.13008 223.11138 231.96813 238.74269 242.64803 247.62932 252.61061 256.51597 261.49726 269.7961 278.09498 280.86457 286.3938 291.3751 297.46223 305.21315 311.02134 315.44474 319.35008 324.33137 328.20683 330.9764 336.50566 344.80448 350.3337 355.59397 359.51924 363.39469 367.81809 376.11695 382.20408 389.8155 394.79679 398.67225 403.65354 409.18278 414.16407 418.08934 425.84025 434.96598 439.94728 445.4765 450.4578 455.4391 459.8625 468.16136 472.58476 477.83503 485.028 490.55726 495.8175 499.74278 503.61824 508.04164 516.34048 522.43759 529.63058 534.6119 542.9107 548.43997 553.9692 557.8446 562.268">:DataStructuresandAlgorithms,PythonProgramming,OperatingSystem,DatabaseManagementSystem,Computer</tspan><tspan y="-168.34201" x="26.282002 33.753953 38.177347 41.77384 48.69785 53.669187 57.574525 62.834779 70.08755 81.15599 86.685237 91.10863 95.53202 101.061267 104.966609 107.736209 111.3327 115.76606 121.8532 127.38245 132.36374 135.4123 139.0088 145.9328 150.9141 154.81943 162.56038 169.33495 174.86418 179.84548 182.61508 188.14432 192.56772 196.99112 200.89646 203.66606 209.1953 214.17659 220.26375 227.7357 232.717 236.59246 242.12169 246.02703 251.00832 257.09547 263.33204 268.31333 273.84257 278.82386 284.3531 289.33439 294.31568 302.0566 308.83119 312.7365 317.99678 322.42018 326.84358 330.76884 334.6941 337.46369 342.99293">Networks&#x0026;Security,SoftwareEngineering,NaturalLanguageProcessing</tspan></text>
<text xml:space="preserve" transform="matrix(1 0 -0 1 0 841.89)" font-size="11.9552" font-family="SFXC1200" font-weight="bold"><tspan y="-146.88" x="17.008002 27.361207 34.343046 41.241197 48.617555 52.71819 59.4131 63.513738 71.260707 78.23059 85.60695 89.70758 97.66975 106.157939">Certifications</tspan></text>
<path transform="matrix(1,0,0,-1,17.008,699.393)" stroke-width=".398" stroke-linecap="butt" stroke-miterlimit="10" stroke-linejoin="miter" fill="none" stroke="#000000" d="M0 0H561.26"/>
<text xml:space="preserve" transform="matrix(1 0 -0 1 0 841.89)" font-size="5.9776" font-family="LMMathSymbols6" font-style="italic"><tspan y="-132.658" x="22.653">&#x2022;</tspan></text>
<text xml:space="preserve" transform="matrix(1 0 -0 1 0 841.89)" font-size="9.9626" font-family="SFRB1000" font-weight="bold"><tspan y="-131.593" x="33.193 42.65747 47.499296 51.42456 55.309976 59.96251 64.2265 66.9961 72.525348 80.82419 88.4655 93.30733 97.19274 105.352108 110.88135 114.76676 119.030757 124.56 128.9834 132.8688 138.39804 142.66204 147.31456 154.56734 159.40917 164.9384 173.78519 181.30695 184.07656 189.05785 194.03914 198.30313 201.07274 204.95816 210.4874 218.78624">MasteringDataStructuresandAlgorithms</tspan></text>
<text xml:space="preserve" transform="matrix(1 0 -0 1 0 841.89)" font-size="5.9776" font-family="LMMathSymbols6" font-style="italic"><tspan y="-120.703" x="22.653">&#x2022;</tspan></text>
<text xml:space="preserve" transform="matrix(1 0 -0 1 0 841.89)" font-size="9.9626" font-family="SFRB1000" font-weight="bold"><tspan y="-119.638" x="33.193 39.170564 43.823099 48.66492 52.928915 61.775705 68.30121 72.18662 77.715869 80.485469 84.90886 89.75069 95.84779 103.648509 108.490329 112.634769 117.89502 120.66462 126.19386 134.4927 139.92234 144.18633 149.16762 160.78401 166.31325 170.73665 175.00064 179.84247 183.72788 187.87233">LearnEthicalHackingFromScratch</tspan></text>
<text xml:space="preserve" transform="matrix(1 0 -0 1 0 841.89)" font-size="5.9776" font-family="LMMathSymbols6" font-style="italic"><tspan y="-108.748" x="22.653">&#x2022;</tspan></text>
<text xml:space="preserve" transform="matrix(1 0 -0 1 0 841.89)" font-size="9.9626" font-family="SFRB1000" font-weight="bold"><tspan y="-107.683" x="33.193 38.622617 44.15186 49.681104 55.210348 60.05217 68.35101 73.00355 78.25384 82.13925 86.98108 89.75068 96.993488 101.974788 108.350849 115.59366 120.01705 124.440448 129.09297 131.86258 136.5151 140.7791 145.62093 149.50635 154.15888 163.00566 170.19866 175.17995 183.47879 189.00803 194.53726 198.42267 201.19228 206.72151 215.02036 222.21335 224.98296 228.86838 237.72513 244.91812 252.57936 259.9417 270.781 277.58546 282.8457 286.7311 292.26036 297.24165">FundamentalsofAcceleratedComputingwithCUDAPython</tspan></text>
<text xml:space="preserve" transform="matrix(1 0 -0 1 0 841.89)" font-size="11.9552" font-family="SFXC1200" font-weight="bold"><tspan y="-86.333" x="17.008002 30.481514 34.58215 40.55975 48.30672 55.28856 61.684595 68.08063 76.21017 84.69836 91.68019 99.65431 107.96318">Miscellaneous</tspan></text>
<path transform="matrix(1,0,0,-1,17.008,759.94)" stroke-width=".398" stroke-linecap="butt" stroke-miterlimit="10" stroke-linejoin="miter" fill="none" stroke="#000000" d="M0 0H561.26"/>
<text xml:space="preserve" transform="matrix(1 0 -0 1 0 841.89)" font-size="5.9776" font-family="LMMathSymbols6" font-style="italic"><tspan y="-69.484" x="17.008">&#x2022;</tspan></text>
<text xml:space="preserve" transform="matrix(1 0 -0 1 0 841.89)" font-size="9.9626" font-family="SFRB1000" font-weight="bold"><tspan y="-68.419" x="25.807999 33.050809 37.20521 42.734457 45.50406 50.14663 55.137895 59.79043 68.08927 72.741809 77.992099 85.19505">Achievement1</tspan></text>
<text xml:space="preserve" transform="matrix(1 0 -0 1 0 841.89)" font-size="9.9626" font-family="SFRM1000"><tspan y="-68.419" x="90.175998 97.11993 103.34655 107.76994 112.19334 116.06879 120.49218 125.75243 131.28168 139.02263 146.3551 151.3364 156.86563 165.44344 172.63645 179.96892 184.95021 190.47945 199.06722 204.04851 209.0298 214.0111 216.7807 221.762 226.74329 231.72458 235.60004 240.58133 245.56262 253.86147 259.1217 264.65095 269.07435 272.9996 276.87507 279.64466 284.62596 293.47273 297.39799 302.37928 305.14888 310.13017 314.55357 320.0828">,LeetcodeRank:Rank490,870(121questionsolved)</tspan></text>
<text xml:space="preserve" transform="matrix(1 0 -0 1 0 841.89)" font-size="9.9626" font-family="SFTI1000" font-style="italic"><tspan y="-68.419" x="514.628 519.7189 524.80978 529.90066 534.9915 538.5581 543.649 548.73989 553.83078">2022-2023</tspan></text>
<text xml:space="preserve" transform="matrix(1 0 -0 1 0 841.89)" font-size="5.9776" font-family="LMMathSymbols6" font-style="italic"><tspan y="-56.086999" x="17.007996">&#x2022;</tspan></text>
<text xml:space="preserve" transform="matrix(1 0 -0 1 0 841.89)" font-size="9.9626" font-family="SFRB1000" font-weight="bold"><tspan y="-55.022" x="25.807995 33.050806 37.205209 42.73445 45.504056 50.146627 55.13789 59.790426 68.08927 72.741809 77.992099 85.19505">Achievement2</tspan></text>
<text xml:space="preserve" transform="matrix(1 0 -0 1 0 841.89)" font-size="9.9626" font-family="SFRM1000"><tspan y="-55.022" x="90.175998 93.79242 100.98542 106.245677 111.77492 116.19831 120.352718 125.88196 130.30536 136.67147 142.2007 146.6241 151.88436 154.65396 158.57923 161.34883 166.33013 175.17691">,Codechefdevision2</tspan></text>
<text xml:space="preserve" transform="matrix(1 0 -0 1 0 841.89)" font-size="9.9626" font-family="SFTI1000" font-style="italic"><tspan y="-55.022" x="514.628 519.7189 524.80978 529.90066 534.9915 538.5581 543.649 548.73989 553.83078">2021-2022</tspan></text>
<text xml:space="preserve" transform="matrix(1 0 -0 1 0 841.89)" font-size="8.9664" font-family="SFRM0900"><tspan y="-14.173" x="228.048 233.80443 238.41316 242.04456 248.70659 253.8264 259.1973 264.3171 268.92585 272.5124 276.61006 281.72987 288.38294 293.50276 297.6004 302.7202 306.30677 310.40443 317.8196 323.19947 327.29713 333.9681 338.57685 343.18559 348.81648 353.4252 358.03395 362.64268">Lastupdated:September15,2023</tspan></text>
</svg>
